<svg width="65" height="68" viewBox="0 0 65 68" xmlns="http://www.w3.org/2000/svg"><title>Group</title><path d="M8.043 66.439c7.915 3.714 11.377-7.67 23.773-7.67 11.952 0 15.188 11.38 23.78 7.67 7.601-3.281-12.458-45.026-23.558-44.999-9.296.024-32.013 41.239-23.995 44.999m47.119-34.72a8.21 8.21 0 0 0 1.432-16.354 8.21 8.21 0 0 0-8.896 7.461 8.212 8.212 0 0 0 7.464 8.893M41.388 17.097A8.208 8.208 0 1 0 42.818.743a8.209 8.209 0 0 0-8.894 7.461 8.207 8.207 0 0 0 7.464 8.893M9.284 31.719a8.21 8.21 0 0 1-8.895-7.462 8.208 8.208 0 0 1 7.464-8.892 8.21 8.21 0 1 1 1.431 16.354M23.06 17.097A8.208 8.208 0 0 1 21.629.743a8.21 8.21 0 0 1 8.895 7.461 8.211 8.211 0 0 1-7.464 8.893" fill="#0095BC"/></svg>