<?xml version="1.0" encoding="UTF-8"?>
<svg width="65px" height="68px" viewBox="0 0 65 68" version="1.1" xmlns="http://www.w3.org/2000/svg" xmlns:xlink="http://www.w3.org/1999/xlink">
    <!-- Generator: Sketch 42 (36781) - http://www.bohemiancoding.com/sketch -->
    <title>Group</title>
    <desc>Created with Sketch.</desc>
    <defs></defs>
    <g id="Page-1" stroke="none" stroke-width="1" fill="none" fill-rule="evenodd">
        <g id="Group" fill-rule="nonzero" fill="#0095BC">
            <path d="M8.043,66.439 C15.958,70.153 19.42,58.769 31.816,58.769 C43.768,58.769 47.004,70.149 55.596,66.439 C63.197,63.158 43.138,21.413 32.038,21.44 C22.742,21.464 0.025,62.679 8.043,66.439" id="Shape"></path>
            <path d="M55.162,31.719 C59.681,32.115 63.662,28.773 64.058,24.257 C64.453,19.741 61.111,15.76 56.594,15.365 C52.076,14.97 48.094,18.31 47.698,22.826 C47.304,27.342 50.646,31.323 55.162,31.719" id="Shape"></path>
            <path d="M41.388,17.097 C45.905,17.492 49.887,14.151 50.282,9.635 C50.678,5.119 47.336,1.138 42.818,0.743 C38.301,0.348 34.319,3.688 33.924,8.204 C33.527,12.72 36.869,16.702 41.388,17.097" id="Shape"></path>
            <path d="M9.284,31.719 C4.767,32.115 0.784,28.773 0.389,24.257 C-0.007,19.741 3.335,15.76 7.853,15.365 C12.371,14.97 16.353,18.31 16.748,22.826 C17.144,27.342 13.803,31.323 9.284,31.719" id="Shape"></path>
            <path d="M23.06,17.097 C18.541,17.492 14.56,14.151 14.164,9.635 C13.769,5.119 17.11,1.138 21.629,0.743 C26.146,0.348 30.127,3.688 30.524,8.204 C30.918,12.72 27.576,16.702 23.06,17.097" id="Shape"></path>
        </g>
    </g>
</svg>