<?xml version="1.0" encoding="utf-8"?>
<!-- Generator: Adobe Illustrator 15.0.0, SVG Export Plug-In . SVG Version: 6.00 Build 0)  -->
<!DOCTYPE svg PUBLIC "-//W3C//DTD SVG 1.1//EN" "http://www.w3.org/Graphics/SVG/1.1/DTD/svg11.dtd">
<svg version="1.1" id="Share" xmlns="http://www.w3.org/2000/svg" xmlns:xlink="http://www.w3.org/1999/xlink" x="0px" y="0px"
	 width="720px" height="720px" viewBox="0 0 720 720" enable-background="new 0 0 720 720" xml:space="preserve">
<path fill="#1396BC" d="M540,483.912c-22.788,0-43.344,8.855-58.932,23.112L267.3,382.355c1.656-6.768,2.7-13.823,2.7-21.023
	s-1.044-14.22-2.7-20.988L478.8,216.9c16.057,15.012,37.513,24.3,61.2,24.3c49.644,0,90-40.356,90-90c0-49.644-40.356-90-90-90
	s-90,40.356-90,90c0,7.2,1.044,14.256,2.7,20.988L241.2,295.632c-16.056-14.976-37.512-24.3-61.2-24.3c-49.644,0-90,40.356-90,90
	c0,49.644,40.356,90,90,90c23.688,0,45.144-9.288,61.2-24.3L454.968,551.7c-1.512,6.3-2.412,12.888-2.412,19.656
	c0,48.312,39.132,87.443,87.444,87.443c48.312,0,87.444-39.168,87.444-87.444C627.444,523.08,588.312,483.912,540,483.912z"/>
</svg>
